<svg xmlns="http://www.w3.org/2000/svg" viewBox="0 0 1440 1024" preserveAspectRatio="xMidYMid slice">
  <defs>
    <linearGradient id="g" x1="0" x2="0" y1="0" y2="1">
      <stop offset="0%" stop-color="#000" stop-opacity="0.95" />
      <stop offset="100%" stop-color="#000" stop-opacity="0.95" />
    </linearGradient>
    <filter id="soft">
      <feGaussianBlur in="SourceGraphic" stdDeviation="0.4" />
    </filter>
  </defs>

  <rect width="100%" height="100%" fill="#fff" />

  <!-- Linhas orgânicas inspiradas na imagem de referência -->
  <g fill="none" stroke="url(#g)" stroke-width="2" filter="url(#soft)">
    <path d="M-100 120 C 120 80, 220 220, 360 160 S 640 40, 780 140 1080 240, 1320 140 1640 80, 1600 220" />
    <path d="M-100 170 C 120 130, 220 270, 360 210 S 640 90, 780 190 1080 290, 1320 190 1640 130, 1600 270" />
    <path d="M-100 220 C 120 180, 220 320, 360 260 S 640 140, 780 240 1080 340, 1320 240 1640 180, 1600 320" />
    <path d="M-100 270 C 120 230, 220 370, 360 310 S 640 190, 780 290 1080 390, 1320 290 1640 230, 1600 370" />
    <path d="M-100 320 C 120 280, 220 420, 360 360 S 640 240, 780 340 1080 440, 1320 340 1640 280, 1600 420" />
    <path d="M-100 370 C 120 330, 220 470, 360 410 S 640 290, 780 390 1080 490, 1320 390 1640 330, 1600 470" />
    <path d="M-100 420 C 120 380, 220 520, 360 460 S 640 340, 780 440 1080 540, 1320 440 1640 380, 1600 520" />
    <path d="M-100 470 C 120 430, 220 570, 360 510 S 640 390, 780 490 1080 590, 1320 490 1640 430, 1600 570" />
    <path d="M-100 520 C 120 480, 220 620, 360 560 S 640 440, 780 540 1080 640, 1320 540 1640 480, 1600 620" />
    <path d="M-100 570 C 120 530, 220 670, 360 610 S 640 490, 780 590 1080 690, 1320 590 1640 530, 1600 670" />
    <path d="M-100 620 C 120 580, 220 720, 360 660 S 640 540, 780 640 1080 740, 1320 640 1640 580, 1600 720" />
    <path d="M-100 670 C 120 630, 220 770, 360 710 S 640 590, 780 690 1080 790, 1320 690 1640 630, 1600 770" />
    <path d="M-100 720 C 120 680, 220 820, 360 760 S 640 640, 780 740 1080 840, 1320 740 1640 680, 1600 820" />
    <path d="M-100 770 C 120 730, 220 870, 360 810 S 640 690, 780 790 1080 890, 1320 790 1640 730, 1600 870" />
    <path d="M-100 820 C 120 780, 220 920, 360 860 S 640 740, 780 840 1080 940, 1320 840 1640 780, 1600 920" />
  </g>
</svg>


